<?xml version="1.0" encoding="UTF-8"?>
<!DOCTYPE svg PUBLIC "-//W3C//DTD SVG 1.1//EN" "http://www.w3.org/Graphics/SVG/1.1/DTD/svg11.dtd">
<svg xmlns="http://www.w3.org/2000/svg" version="1.1" width="600px" height="600px" style="shape-rendering:geometricPrecision; text-rendering:geometricPrecision; image-rendering:optimizeQuality; fill-rule:evenodd; clip-rule:evenodd" xmlns:xlink="http://www.w3.org/1999/xlink">
<g><path style="opacity:1" fill="#bb2024" d="M -0.5,-0.5 C 199.5,-0.5 399.5,-0.5 599.5,-0.5C 599.5,199.5 599.5,399.5 599.5,599.5C 399.5,599.5 199.5,599.5 -0.5,599.5C -0.5,399.5 -0.5,199.5 -0.5,-0.5 Z"/></g>
<g><path style="opacity:1" fill="#b5232b" d="M 460.5,137.5 C 457.807,136.448 455.14,135.448 452.5,134.5C 452.5,133.833 452.167,133.5 451.5,133.5C 379.001,132.334 306.334,132.168 233.5,133C 231.618,133.198 229.952,133.698 228.5,134.5C 228.5,134.833 228.5,135.167 228.5,135.5C 228.167,135.5 227.833,135.5 227.5,135.5C 226.167,135.5 224.833,135.5 223.5,135.5C 221.5,135.5 219.5,135.5 217.5,135.5C 218.952,134.698 220.618,134.198 222.5,134C 221.5,133.667 220.5,133.333 219.5,133C 219.854,131.374 219.854,129.541 219.5,127.5C 228.343,129.499 237.343,130.665 246.5,131C 315.167,131.333 383.833,131.667 452.5,132C 456.191,132.55 458.857,134.383 460.5,137.5 Z"/></g>
<g><path style="opacity:1" fill="#951a22" d="M 451.5,133.5 C 377.156,133.195 302.822,133.528 228.5,134.5C 229.952,133.698 231.618,133.198 233.5,133C 306.334,132.168 379.001,132.334 451.5,133.5 Z"/></g>
<g><path style="opacity:1" fill="#c27779" d="M 451.5,133.5 C 452.167,133.5 452.5,133.833 452.5,134.5C 381.331,134.167 310.331,134.501 239.5,135.5C 235.833,135.5 232.167,135.5 228.5,135.5C 228.5,135.167 228.5,134.833 228.5,134.5C 302.822,133.528 377.156,133.195 451.5,133.5 Z"/></g>
<g><path style="opacity:1" fill="#fedad9" d="M 239.5,135.5 C 310.331,134.501 381.331,134.167 452.5,134.5C 455.14,135.448 457.807,136.448 460.5,137.5C 461.6,138.605 462.267,139.938 462.5,141.5C 461.504,141.414 460.671,141.748 460,142.5C 458.772,138.296 455.939,136.13 451.5,136C 380.834,135.5 310.167,135.333 239.5,135.5 Z"/></g>
<g><path style="opacity:1" fill="#ecb8b6" d="M 223.5,135.5 C 224.833,135.5 226.167,135.5 227.5,135.5C 227.389,136.117 227.056,136.617 226.5,137C 222.83,137.548 219.163,138.048 215.5,138.5C 218.087,137.251 220.754,136.251 223.5,135.5 Z"/></g>
<g><path style="opacity:1" fill="#fefefe" d="M 227.5,135.5 C 227.833,135.5 228.167,135.5 228.5,135.5C 232.167,135.5 235.833,135.5 239.5,135.5C 310.167,135.333 380.834,135.5 451.5,136C 455.939,136.13 458.772,138.296 460,142.5C 460.671,141.748 461.504,141.414 462.5,141.5C 462.389,142.117 462.056,142.617 461.5,143C 462.249,144.734 462.749,146.567 463,148.5C 463.5,162.829 463.667,177.163 463.5,191.5C 461.653,196.012 458.32,198.679 453.5,199.5C 380.833,199.333 308.166,199.5 235.5,200C 232.655,200.008 230.655,201.175 229.5,203.5C 229.167,203.5 228.833,203.5 228.5,203.5C 224.698,202.88 221.365,203.714 218.5,206C 218.833,206.333 219.167,206.667 219.5,207C 217.667,208.167 215.833,209.333 214,210.5C 213.667,210.167 213.333,209.833 213,209.5C 211.833,210.667 210.667,211.833 209.5,213C 209.619,214.145 209.952,215.312 210.5,216.5C 209.471,218.517 208.471,220.517 207.5,222.5C 204.117,227.276 201.784,232.609 200.5,238.5C 199.335,288.998 199.168,339.665 200,390.5C 201.159,393.493 203.325,395.16 206.5,395.5C 205.553,397.758 206.553,398.925 209.5,399C 260.5,399.667 311.5,399.667 362.5,399C 363.737,398.768 364.737,398.268 365.5,397.5C 369.167,396.167 372.833,394.833 376.5,393.5C 377.873,393.657 379.207,393.49 380.5,393C 383.826,390.045 387.159,387.045 390.5,384C 389.944,383.617 389.611,383.117 389.5,382.5C 389.5,382.167 389.5,381.833 389.5,381.5C 392.766,381.567 394.266,379.901 394,376.5C 398.361,371.739 400.194,366.072 399.5,359.5C 400.12,353.074 399.453,347.074 397.5,341.5C 397.5,341.167 397.5,340.833 397.5,340.5C 397.5,339.167 397.5,337.833 397.5,336.5C 398.848,335.473 399.348,334.14 399,332.5C 387.711,329.072 387.878,327.405 399.5,327.5C 399.5,326.5 399.5,325.5 399.5,324.5C 392.93,324.918 386.763,323.585 381,320.5C 350.333,320.5 319.667,320.5 289,320.5C 288.581,321.672 287.915,322.672 287,323.5C 280.987,322.751 275.154,321.417 269.5,319.5C 268.341,309.008 268.175,298.341 269,287.5C 269.147,282.014 269.981,276.681 271.5,271.5C 274.947,271.186 278.28,270.352 281.5,269C 339.582,268.008 397.582,268.342 455.5,270C 457.489,273.102 459.822,275.935 462.5,278.5C 463.5,312.827 463.833,347.16 463.5,381.5C 463.5,382.167 463.5,382.833 463.5,383.5C 461.386,384.907 459.886,386.907 459,389.5C 458.631,393.863 458.131,398.196 457.5,402.5C 457.5,402.833 457.5,403.167 457.5,403.5C 455.193,405.338 452.86,407.338 450.5,409.5C 451.348,411.409 451.682,413.409 451.5,415.5C 445.591,419.281 441.591,424.615 439.5,431.5C 430.045,442.041 419.045,450.374 406.5,456.5C 398.879,459.317 391.212,461.65 383.5,463.5C 382.167,463.5 380.833,463.5 379.5,463.5C 300.82,463.951 222.153,463.451 143.5,462C 141.806,460.061 139.973,458.228 138,456.5C 137.667,454.167 137.333,451.833 137,449.5C 136.195,375.49 136.362,301.49 137.5,227.5C 137.5,224.833 137.5,222.167 137.5,219.5C 140.483,213.885 142.483,207.885 143.5,201.5C 147.966,190.566 153.966,180.566 161.5,171.5C 165.167,168.5 168.5,165.167 171.5,161.5C 175.127,159.206 178.461,156.54 181.5,153.5C 181.833,153.5 182.167,153.5 182.5,153.5C 192.628,146.603 203.628,141.603 215.5,138.5C 219.163,138.048 222.83,137.548 226.5,137C 227.056,136.617 227.389,136.117 227.5,135.5 Z"/></g>
<g><path style="opacity:1" fill="#fff8ff" d="M 240.5,137.5 C 309.503,137.167 378.503,137.5 447.5,138.5C 413,138.833 378.5,139.167 344,139.5C 309.16,139.5 274.66,138.833 240.5,137.5 Z"/></g>
<g><path style="opacity:1" fill="#962d30" d="M 217.5,135.5 C 219.5,135.5 221.5,135.5 223.5,135.5C 220.754,136.251 218.087,137.251 215.5,138.5C 203.628,141.603 192.628,146.603 182.5,153.5C 184.284,151.59 185.284,149.256 185.5,146.5C 191.531,146.649 196.864,144.816 201.5,141C 206.98,139.419 212.313,137.585 217.5,135.5 Z"/></g>
<g><path style="opacity:1" fill="#fcfef8" d="M 447.5,140.5 C 448.478,140.811 449.145,141.478 449.5,142.5C 384.5,143.833 319.5,143.833 254.5,142.5C 318.999,141.833 383.332,141.167 447.5,140.5 Z"/></g>
<g><path style="opacity:1" fill="#f2d1ce" d="M 462.5,141.5 C 463.167,142.167 463.833,142.833 464.5,143.5C 465.636,159.122 465.802,174.789 465,190.5C 464.617,191.056 464.117,191.389 463.5,191.5C 463.667,177.163 463.5,162.829 463,148.5C 462.749,146.567 462.249,144.734 461.5,143C 462.056,142.617 462.389,142.117 462.5,141.5 Z"/></g>
<g><path style="opacity:1" fill="#a52b2c" d="M 181.5,153.5 C 178.461,156.54 175.127,159.206 171.5,161.5C 172.924,158.279 174.757,155.279 177,152.5C 178.356,153.38 179.856,153.714 181.5,153.5 Z"/></g>
<g><path style="opacity:1" fill="#901f25" d="M 464.5,143.5 C 465.831,151.138 466.498,159.138 466.5,167.5C 466.333,175.5 466.167,183.5 466,191.5C 463.573,195.76 460.073,198.76 455.5,200.5C 454.833,200.5 454.167,200.5 453.5,200.5C 453.5,200.167 453.5,199.833 453.5,199.5C 458.32,198.679 461.653,196.012 463.5,191.5C 464.117,191.389 464.617,191.056 465,190.5C 465.802,174.789 465.636,159.122 464.5,143.5 Z"/></g>
<g><path style="opacity:1" fill="#a9252d" d="M 161.5,171.5 C 153.966,180.566 147.966,190.566 143.5,201.5C 140.527,207.085 138.527,213.085 137.5,219.5C 136.833,220.833 136.167,222.167 135.5,223.5C 134.829,215.147 135.995,207.147 139,199.5C 139.741,198.359 140.575,198.359 141.5,199.5C 143.022,194.796 144.522,190.463 146,186.5C 149.036,184.964 151.203,182.631 152.5,179.5C 153.325,178.614 154.325,178.281 155.5,178.5C 155.498,176.169 156.331,174.169 158,172.5C 158.333,172.833 158.667,173.167 159,173.5C 159.417,172.244 160.25,171.577 161.5,171.5 Z"/></g>
<g><path style="opacity:1" fill="#f9fef6" d="M 447.5,191.5 C 450.133,192.811 450.133,194.311 447.5,196C 378.167,196.667 308.833,196.667 239.5,196C 239.043,195.586 238.709,195.086 238.5,194.5C 308.505,194.165 378.171,193.165 447.5,191.5 Z"/></g>
<g><path style="opacity:1" fill="#faccd5" d="M 453.5,199.5 C 453.5,199.833 453.5,200.167 453.5,200.5C 381.166,200.333 308.833,200.5 236.5,201C 234.1,201.744 231.767,202.577 229.5,203.5C 230.655,201.175 232.655,200.008 235.5,200C 308.166,199.5 380.833,199.333 453.5,199.5 Z"/></g>
<g><path style="opacity:1" fill="#a02c2f" d="M 453.5,200.5 C 454.167,200.5 454.833,200.5 455.5,200.5C 455.082,201.222 454.416,201.722 453.5,202C 382.167,202.333 310.833,202.667 239.5,203C 232.467,205.522 225.801,208.522 219.5,212C 219.833,212.333 220.167,212.667 220.5,213C 218.975,214.009 217.308,214.509 215.5,214.5C 216.833,212.833 218.167,211.167 219.5,209.5C 222.032,206.771 225.032,204.771 228.5,203.5C 228.833,203.5 229.167,203.5 229.5,203.5C 231.767,202.577 234.1,201.744 236.5,201C 308.833,200.5 381.166,200.333 453.5,200.5 Z"/></g>
<g><path style="opacity:1" fill="#f6d0cb" d="M 143.5,201.5 C 142.483,207.885 140.483,213.885 137.5,219.5C 138.527,213.085 140.527,207.085 143.5,201.5 Z"/></g>
<g><path style="opacity:1" fill="#bc1d29" d="M 239.5,205.5 C 309.501,205.333 379.501,205.5 449.5,206C 448.692,206.308 448.025,206.808 447.5,207.5C 378.169,208.667 308.836,208.833 239.5,208C 238.402,207.23 238.402,206.397 239.5,205.5 Z"/></g>
<g><path style="opacity:1" fill="#f6d9d7" d="M 228.5,203.5 C 225.032,204.771 222.032,206.771 219.5,209.5C 216.233,211.427 213.233,213.761 210.5,216.5C 209.952,215.312 209.619,214.145 209.5,213C 210.667,211.833 211.833,210.667 213,209.5C 213.333,209.833 213.667,210.167 214,210.5C 215.833,209.333 217.667,208.167 219.5,207C 219.167,206.667 218.833,206.333 218.5,206C 221.365,203.714 224.698,202.88 228.5,203.5 Z"/></g>
<g><path style="opacity:1" fill="#852422" d="M 219.5,209.5 C 218.167,211.167 216.833,212.833 215.5,214.5C 212.473,216.86 209.806,219.527 207.5,222.5C 208.471,220.517 209.471,218.517 210.5,216.5C 213.233,213.761 216.233,211.427 219.5,209.5 Z"/></g>
<g><path style="opacity:1" fill="#e7b7b2" d="M 137.5,219.5 C 137.5,222.167 137.5,224.833 137.5,227.5C 136.833,228.833 136.167,230.167 135.5,231.5C 135.5,228.833 135.5,226.167 135.5,223.5C 136.167,222.167 136.833,220.833 137.5,219.5 Z"/></g>
<g><path style="opacity:1" fill="#b52226" d="M 204.5,232.5 C 205.134,258.82 205.468,285.153 205.5,311.5C 205.486,336.11 204.819,360.61 203.5,385C 204.117,390.449 207.117,392.616 212.5,391.5C 212.392,393.514 213.058,395.18 214.5,396.5C 213.127,396.657 211.793,396.49 210.5,396C 208.748,393.666 206.581,391.833 204,390.5C 203.667,389.5 203.333,388.5 203,387.5C 202.333,338.167 202.333,288.833 203,239.5C 203.186,236.964 203.686,234.631 204.5,232.5 Z"/></g>
<g><path style="opacity:1" fill="#fde7e0" d="M 200.5,238.5 C 200.333,288.168 200.5,337.834 201,387.5C 202.273,390.597 204.107,393.264 206.5,395.5C 203.325,395.16 201.159,393.493 200,390.5C 199.168,339.665 199.335,288.998 200.5,238.5 Z"/></g>
<g><path style="opacity:1" fill="#b72227" d="M 131.5,237.5 C 132.499,307.331 132.833,377.331 132.5,447.5C 132.077,449.781 132.744,451.448 134.5,452.5C 134.5,452.833 134.5,453.167 134.5,453.5C 134.394,456.615 135.394,459.281 137.5,461.5C 135.516,460.844 133.516,460.178 131.5,459.5C 129.865,460.046 128.199,460.38 126.5,460.5C 126.687,458.436 127.187,456.436 128,454.5C 128.333,454.833 128.667,455.167 129,455.5C 129.827,454.338 130.66,453.171 131.5,452C 131,450.5 130.5,449 130,447.5C 129.333,383.5 129.333,319.5 130,255.5C 130.963,249.535 131.463,243.535 131.5,237.5 Z"/></g>
<g><path style="opacity:1" fill="#ab1c26" d="M 135.5,223.5 C 135.5,226.167 135.5,228.833 135.5,231.5C 134.527,233.948 134.194,236.615 134.5,239.5C 133.833,308.833 133.167,378.167 132.5,447.5C 132.833,377.331 132.499,307.331 131.5,237.5C 132.231,232.642 133.565,227.976 135.5,223.5 Z"/></g>
<g><path style="opacity:1" fill="#90282f" d="M 134.5,239.5 C 134.5,310.5 134.5,381.5 134.5,452.5C 132.744,451.448 132.077,449.781 132.5,447.5C 133.167,378.167 133.833,308.833 134.5,239.5 Z"/></g>
<g><path style="opacity:1" fill="#f1cccc" d="M 137.5,227.5 C 136.362,301.49 136.195,375.49 137,449.5C 137.333,451.833 137.667,454.167 138,456.5C 139.973,458.228 141.806,460.061 143.5,462C 222.153,463.451 300.82,463.951 379.5,463.5C 377.031,464.317 374.365,464.817 371.5,465C 295.478,465.821 219.478,465.655 143.5,464.5C 143.158,463.662 142.492,463.328 141.5,463.5C 138.325,460.675 135.992,457.341 134.5,453.5C 134.5,453.167 134.5,452.833 134.5,452.5C 134.5,381.5 134.5,310.5 134.5,239.5C 134.194,236.615 134.527,233.948 135.5,231.5C 136.167,230.167 136.833,228.833 137.5,227.5 Z"/></g>
<g><path style="opacity:1" fill="#9c1b25" d="M 453.5,265.5 C 395.331,265.168 337.331,265.501 279.5,266.5C 277.079,266.878 274.746,267.545 272.5,268.5C 272.167,268.5 271.833,268.5 271.5,268.5C 272.335,267.057 273.668,266.057 275.5,265.5C 334.999,264.169 394.332,264.169 453.5,265.5 Z"/></g>
<g><path style="opacity:1" fill="#933b3e" d="M 279.5,266.5 C 337.331,265.501 395.331,265.168 453.5,265.5C 458.354,266.087 462.021,268.42 464.5,272.5C 465.038,274.117 465.371,275.784 465.5,277.5C 464.108,275.727 462.941,273.727 462,271.5C 459.948,269.942 457.781,268.608 455.5,267.5C 397.002,266.501 338.336,266.168 279.5,266.5 Z"/></g>
<g><path style="opacity:1" fill="#fecdcb" d="M 279.5,266.5 C 338.336,266.168 397.002,266.501 455.5,267.5C 396.832,267.333 338.166,267.5 279.5,268C 276.846,268.941 274.179,269.774 271.5,270.5C 271.833,269.833 272.167,269.167 272.5,268.5C 274.746,267.545 277.079,266.878 279.5,266.5 Z"/></g>
<g><path style="opacity:1" fill="#f7e1de" d="M 455.5,267.5 C 457.781,268.608 459.948,269.942 462,271.5C 462.941,273.727 464.108,275.727 465.5,277.5C 465.667,310.168 465.5,342.835 465,375.5C 464.809,377.708 464.309,379.708 463.5,381.5C 463.833,347.16 463.5,312.827 462.5,278.5C 459.822,275.935 457.489,273.102 455.5,270C 397.582,268.342 339.582,268.008 281.5,269C 278.28,270.352 274.947,271.186 271.5,271.5C 271.5,271.167 271.5,270.833 271.5,270.5C 274.179,269.774 276.846,268.941 279.5,268C 338.166,267.5 396.832,267.333 455.5,267.5 Z"/></g>
<g><path style="opacity:1" fill="#b3212c" d="M 466.5,374.5 C 466.832,341.996 466.498,309.662 465.5,277.5C 465.371,275.784 465.038,274.117 464.5,272.5C 465.117,272.389 465.617,272.056 466,271.5C 466.333,272.833 466.667,274.167 467,275.5C 467.831,308.669 467.664,341.669 466.5,374.5 Z"/></g>
<g><path style="opacity:1" fill="#b81f2c" d="M 473.5,287.5 C 474.5,287.5 475.5,287.5 476.5,287.5C 476.667,314.169 476.5,340.835 476,367.5C 475.821,370.553 475.321,373.553 474.5,376.5C 473.5,346.841 473.167,317.174 473.5,287.5 Z"/></g>
<g><path style="opacity:1" fill="#a82027" d="M 265.5,276.5 C 265.171,291.01 265.504,305.343 266.5,319.5C 266.433,320.959 266.766,322.292 267.5,323.5C 267.5,324.833 267.5,326.167 267.5,327.5C 266.21,326.942 265.377,325.942 265,324.5C 264.486,308.82 264.153,293.153 264,277.5C 264.383,276.944 264.883,276.611 265.5,276.5 Z"/></g>
<g><path style="opacity:1" fill="#8d272a" d="M 271.5,268.5 C 271.833,268.5 272.167,268.5 272.5,268.5C 272.167,269.167 271.833,269.833 271.5,270.5C 271.5,270.833 271.5,271.167 271.5,271.5C 268.832,272.457 267.332,274.457 267,277.5C 266.5,291.496 266.333,305.496 266.5,319.5C 265.504,305.343 265.171,291.01 265.5,276.5C 266.049,272.671 268.049,270.004 271.5,268.5 Z"/></g>
<g><path style="opacity:1" fill="#901b24" d="M 465.5,277.5 C 466.498,309.662 466.832,341.996 466.5,374.5C 465.336,381.456 464.336,388.456 463.5,395.5C 462.388,397.419 461.054,399.086 459.5,400.5C 460.83,394.852 462.164,389.185 463.5,383.5C 463.5,382.833 463.5,382.167 463.5,381.5C 464.309,379.708 464.809,377.708 465,375.5C 465.5,342.835 465.667,310.168 465.5,277.5 Z"/></g>
<g><path style="opacity:1" fill="#fafdfa" d="M 269.5,319.5 C 275.154,321.417 280.987,322.751 287,323.5C 287.915,322.672 288.581,321.672 289,320.5C 319.667,320.5 350.333,320.5 381,320.5C 386.763,323.585 392.93,324.918 399.5,324.5C 399.5,325.5 399.5,326.5 399.5,327.5C 387.878,327.405 387.711,329.072 399,332.5C 399.348,334.14 398.848,335.473 397.5,336.5C 396.733,335.828 396.066,334.995 395.5,334C 391.379,332.101 387.046,331.268 382.5,331.5C 384.026,329.87 386.026,329.037 388.5,329C 389.888,328.111 389.722,327.611 388,327.5C 387.228,327.645 386.561,327.978 386,328.5C 353.238,327.67 320.405,327.17 287.5,327C 281.705,326.408 276.038,325.241 270.5,323.5C 269.754,322.264 269.421,320.93 269.5,319.5 Z"/></g>
<g><path style="opacity:1" fill="#fdf1f1" d="M 271.5,271.5 C 269.981,276.681 269.147,282.014 269,287.5C 268.175,298.341 268.341,309.008 269.5,319.5C 269.421,320.93 269.754,322.264 270.5,323.5C 276.038,325.241 281.705,326.408 287.5,327C 320.405,327.17 353.238,327.67 386,328.5C 386.561,327.978 387.228,327.645 388,327.5C 389.722,327.611 389.888,328.111 388.5,329C 386.026,329.037 384.026,329.87 382.5,331.5C 347.832,331.667 313.165,331.5 278.5,331C 276.564,330.187 274.564,329.687 272.5,329.5C 270.357,327.869 268.69,325.869 267.5,323.5C 266.766,322.292 266.433,320.959 266.5,319.5C 266.333,305.496 266.5,291.496 267,277.5C 267.332,274.457 268.832,272.457 271.5,271.5 Z"/></g>
<g><path style="opacity:1" fill="#fddfd9" d="M 272.5,329.5 C 274.564,329.687 276.564,330.187 278.5,331C 313.165,331.5 347.832,331.667 382.5,331.5C 387.046,331.268 391.379,332.101 395.5,334C 396.066,334.995 396.733,335.828 397.5,336.5C 397.5,337.833 397.5,339.167 397.5,340.5C 395.17,336.817 391.837,334.317 387.5,333C 350.5,332.667 313.5,332.333 276.5,332C 274.934,331.392 273.6,330.558 272.5,329.5 Z"/></g>
<g><path style="opacity:1" fill="#9a3334" d="M 267.5,323.5 C 268.69,325.869 270.357,327.869 272.5,329.5C 273.6,330.558 274.934,331.392 276.5,332C 313.5,332.333 350.5,332.667 387.5,333C 391.837,334.317 395.17,336.817 397.5,340.5C 397.5,340.833 397.5,341.167 397.5,341.5C 398.455,347.409 398.789,353.409 398.5,359.5C 398.249,365.597 396.249,370.93 392.5,375.5C 393.079,369.928 394.579,364.594 397,359.5C 398.259,352.466 397.426,345.8 394.5,339.5C 392.65,337.323 390.316,335.823 387.5,335C 350.5,334.667 313.5,334.333 276.5,334C 273.06,332.386 270.06,330.22 267.5,327.5C 267.5,326.167 267.5,324.833 267.5,323.5 Z"/></g>
<g><path style="opacity:1" fill="#e99ea2" d="M 397.5,341.5 C 399.453,347.074 400.12,353.074 399.5,359.5C 399.167,359.5 398.833,359.5 398.5,359.5C 398.789,353.409 398.455,347.409 397.5,341.5 Z"/></g>
<g><path style="opacity:1" fill="#f6d9d7" d="M 398.5,359.5 C 398.833,359.5 399.167,359.5 399.5,359.5C 400.194,366.072 398.361,371.739 394,376.5C 394.266,379.901 392.766,381.567 389.5,381.5C 391.385,379.947 392.385,377.947 392.5,375.5C 396.249,370.93 398.249,365.597 398.5,359.5 Z"/></g>
<g><path style="opacity:1" fill="#8f2f2f" d="M 392.5,375.5 C 392.385,377.947 391.385,379.947 389.5,381.5C 389.5,381.833 389.5,382.167 389.5,382.5C 388.833,382.833 388.167,383.167 387.5,383.5C 387.651,379.913 389.318,377.246 392.5,375.5 Z"/></g>
<g><path style="opacity:1" fill="#f8ddd8" d="M 389.5,382.5 C 389.611,383.117 389.944,383.617 390.5,384C 387.159,387.045 383.826,390.045 380.5,393C 379.207,393.49 377.873,393.657 376.5,393.5C 380.765,390.906 384.431,387.572 387.5,383.5C 388.167,383.167 388.833,382.833 389.5,382.5 Z"/></g>
<g><path style="opacity:1" fill="#fbe1e1" d="M 463.5,383.5 C 462.164,389.185 460.83,394.852 459.5,400.5C 458.833,401.167 458.167,401.833 457.5,402.5C 458.131,398.196 458.631,393.863 459,389.5C 459.886,386.907 461.386,384.907 463.5,383.5 Z"/></g>
<g><path style="opacity:1" fill="#9e3535" d="M 207.5,222.5 C 206.497,225.85 205.497,229.183 204.5,232.5C 203.686,234.631 203.186,236.964 203,239.5C 202.333,288.833 202.333,338.167 203,387.5C 203.333,388.5 203.667,389.5 204,390.5C 206.581,391.833 208.748,393.666 210.5,396C 211.793,396.49 213.127,396.657 214.5,396.5C 261.835,396.667 309.168,396.5 356.5,396C 360.5,395.667 364.5,395.333 368.5,395C 369.337,393.989 369.67,392.822 369.5,391.5C 372.206,391.425 374.873,391.092 377.5,390.5C 377.5,389.5 377.5,388.5 377.5,387.5C 381.289,387.13 384.622,385.797 387.5,383.5C 384.431,387.572 380.765,390.906 376.5,393.5C 372.833,394.833 369.167,396.167 365.5,397.5C 313.855,398.649 262.189,398.815 210.5,398C 209.016,397.338 207.683,396.504 206.5,395.5C 204.107,393.264 202.273,390.597 201,387.5C 200.5,337.834 200.333,288.168 200.5,238.5C 201.784,232.609 204.117,227.276 207.5,222.5 Z"/></g>
<g><path style="opacity:1" fill="#b72127" d="M 224.5,388.5 C 266.978,388.006 309.311,388.506 351.5,390C 308.977,391.66 266.31,391.994 223.5,391C 223.167,390.667 222.833,390.333 222.5,390C 223.416,389.722 224.082,389.222 224.5,388.5 Z"/></g>
<g><path style="opacity:1" fill="#f6b7b9" d="M 206.5,395.5 C 207.683,396.504 209.016,397.338 210.5,398C 262.189,398.815 313.855,398.649 365.5,397.5C 364.737,398.268 363.737,398.768 362.5,399C 311.5,399.667 260.5,399.667 209.5,399C 206.553,398.925 205.553,397.758 206.5,395.5 Z"/></g>
<g><path style="opacity:1" fill="#f9e1da" d="M 457.5,403.5 C 456.432,408.084 454.432,412.084 451.5,415.5C 451.682,413.409 451.348,411.409 450.5,409.5C 452.86,407.338 455.193,405.338 457.5,403.5 Z"/></g>
<g><path style="opacity:1" fill="#fcdfe0" d="M 451.5,415.5 C 447.975,421.23 443.975,426.563 439.5,431.5C 441.591,424.615 445.591,419.281 451.5,415.5 Z"/></g>
<g><path style="opacity:1" fill="#9a2f33" d="M 459.5,400.5 C 459.66,402.199 459.494,403.866 459,405.5C 456.85,409.657 454.684,413.823 452.5,418C 443.543,430.291 433.209,441.291 421.5,451C 416.65,453.338 411.65,455.171 406.5,456.5C 419.045,450.374 430.045,442.041 439.5,431.5C 443.975,426.563 447.975,421.23 451.5,415.5C 454.432,412.084 456.432,408.084 457.5,403.5C 457.5,403.167 457.5,402.833 457.5,402.5C 458.167,401.833 458.833,401.167 459.5,400.5 Z"/></g>
<g><path style="opacity:1" fill="#912b2f" d="M 134.5,453.5 C 135.992,457.341 138.325,460.675 141.5,463.5C 139.938,463.267 138.605,462.6 137.5,461.5C 135.394,459.281 134.394,456.615 134.5,453.5 Z"/></g>
<g><path style="opacity:1" fill="#9d3c3c" d="M 406.5,456.5 C 404.52,458.451 402.187,459.951 399.5,461C 394.416,462.957 389.082,463.79 383.5,463.5C 391.212,461.65 398.879,459.317 406.5,456.5 Z"/></g>
<g><path style="opacity:1" fill="#91151b" d="M 379.5,463.5 C 380.833,463.5 382.167,463.5 383.5,463.5C 382.329,464.345 380.995,465.011 379.5,465.5C 301.856,466.488 224.189,466.822 146.5,466.5C 145.5,465.833 144.5,465.167 143.5,464.5C 219.478,465.655 295.478,465.821 371.5,465C 374.365,464.817 377.031,464.317 379.5,463.5 Z"/></g>
<g><path style="opacity:1" fill="#ba212a" d="M 379.5,465.5 C 379.082,466.222 378.416,466.722 377.5,467C 374.183,467.498 370.85,467.665 367.5,467.5C 367.5,468.833 367.5,470.167 367.5,471.5C 296.946,472.144 226.446,471.477 156,469.5C 152.859,470.322 149.693,470.989 146.5,471.5C 146.5,469.833 146.5,468.167 146.5,466.5C 224.189,466.822 301.856,466.488 379.5,465.5 Z"/></g>
<g><path style="opacity:1" fill="#bf1f1d" d="M 146.5,466.5 C 146.5,468.167 146.5,469.833 146.5,471.5C 149.693,470.989 152.859,470.322 156,469.5C 226.446,471.477 296.946,472.144 367.5,471.5C 368.738,471.81 368.738,472.31 367.5,473C 292.834,473.5 218.167,473.667 143.5,473.5C 143.5,471.167 143.5,468.833 143.5,466.5C 144.5,466.5 145.5,466.5 146.5,466.5 Z"/></g>
<g><path style="opacity:1" fill="#ba1e2c" d="M 368.5,477.5 C 299.167,477.5 229.833,477.5 160.5,477.5C 159.167,477.5 157.833,477.5 156.5,477.5C 156.5,476.5 156.5,475.5 156.5,474.5C 227.167,474.5 297.833,474.5 368.5,474.5C 368.5,475.5 368.5,476.5 368.5,477.5 Z"/></g>
<g><path style="opacity:1" fill="#ba211e" d="M 160.5,477.5 C 229.833,477.5 299.167,477.5 368.5,477.5C 371.187,477.336 373.854,477.503 376.5,478C 377.833,478.667 377.833,479.333 376.5,480C 375,480.167 373.5,480.333 372,480.5C 301.17,480.183 230.67,479.183 160.5,477.5 Z"/></g>
</svg>
